<svg width="512" height="512" viewBox="0 0 512 512" fill="none" xmlns="http://www.w3.org/2000/svg">
  <defs>
    <linearGradient id="bg" x1="0" y1="0" x2="512" y2="512" gradientUnits="userSpaceOnUse">
      <stop stop-color="#07060d"/>
      <stop offset="1" stop-color="#1a1530"/>
    </linearGradient>
    <linearGradient id="accent" x1="120" y1="120" x2="392" y2="392" gradientUnits="userSpaceOnUse">
      <stop stop-color="#8b5cf6"/>
      <stop offset="1" stop-color="#ec4899"/>
    </linearGradient>
  </defs>
  <rect width="512" height="512" rx="112" fill="url(#bg)"/>
  <rect x="8" y="8" width="496" height="496" rx="108" fill="none" stroke="url(#accent)" stroke-opacity="0.3" stroke-width="2"/>
  <path d="M160 180 C160 165, 172 153, 187 153 L325 153 C340 153, 352 165, 352 180 L352 260 C352 275, 340 287, 325 287 L220 287 L180 327 L180 287 L187 287 C172 287, 160 275, 160 260 Z" fill="url(#accent)" fill-opacity="0.15" stroke="url(#accent)" stroke-width="3"/>
  <text x="256" y="235" font-family="'Segoe UI', system-ui, sans-serif" font-size="48" font-weight="700" fill="url(#accent)" text-anchor="middle" dominant-baseline="middle">Voc</text>
  <circle cx="206" cy="220" r="4" fill="#ec4899"/>
  <circle cx="306" cy="220" r="4" fill="#8b5cf6"/>
  <path d="M180 360 L210 360 M225 360 L255 360 M270 360 L300 360 M315 360 L345 360" stroke="url(#accent)" stroke-width="4" stroke-linecap="round" stroke-opacity="0.4"/>
  <path d="M195 390 L225 390 M240 390 L270 390 M285 390 L315 390" stroke="url(#accent)" stroke-width="4" stroke-linecap="round" stroke-opacity="0.25"/>
</svg>
